<svg xmlns="http://www.w3.org/2000/svg" viewBox="0 0 1200 527.7">
  <style>
    .st1{fill:#0085ca}.st2{fill:#f29432}
  </style>
  <path class="st1" d="M196.7 296.6c-3-4.4-5.5-9-7.6-13.8H89.2c-4.4 0-7.9-3.3-7.9-7.5V201c0-4.4 3.3-7.5 7.9-7.5h82.2l.1-.1.1-.1V148v-.2l-.1-.1c-.1-.1-.1-.1-.3-.1h-82c-4.4 0-7.9-3.3-7.9-7.5V68.4c0-4.4 3.3-7.5 7.9-7.5h100.5c2.1-5.3 4.8-10.4 8-15.2 6.2-9.2 14-17 23.5-23.5V16v-.2l-.1-.1-.1-.1H23.6l-.1.1-.1.1V328.1l.1.1.1.1H221l.1-.1.1-.1v-7.3c-9.9-6.7-18.1-14.8-24.5-24.2z"/>
  <path class="st1" d="M352.5 23.2C336.3 15.8 317.4 12 296.4 12c-20.1 0-38.1 3.5-53.7 10.3-3.7 1.6-7.3 3.5-10.6 5.5-1.9 1.1-3.7 2.3-5.5 3.6-1.9 1.3-3.7 2.8-5.5 4.2-5.5 4.6-10.3 9.9-14.2 15.7-2.1 3.1-3.9 6.3-5.5 9.6-.8 1.7-1.5 3.4-2.2 5.2-.6 1.7-1.2 3.4-1.7 5.2-2.2 7.5-3.3 15.5-3.3 24.1 0 16.7 4.2 31.1 12.4 42.8 8.4 12 18.7 21.9 30.5 29.5 12.2 7.8 28.1 16.4 47.5 25.5 16.1 7.7 28.3 13.9 36.1 18.4 8.2 4.8 14.7 10 19.4 15.5 5 6 7.6 13.2 7.6 21.4 0 10.9-3.9 20.1-11.7 27.2-7.7 7.1-18.9 10.7-33.1 10.7-15.8 0-28.6-4.1-38.1-12.2-9.7-8.2-14.6-18.6-14.6-30.8v-8.8-.2l-.1-.1c-.1-.1-.1-.1-.3-.1h-56.7l-.1.1-.1.1v12.2c0 9.2 1.3 17.9 4 25.9.6 1.7 1.2 3.5 1.9 5.2.7 1.7 1.5 3.5 2.4 5.2 1.4 2.8 3.1 5.6 4.9 8.2 4.2 6.2 9.3 11.7 15.3 16.6 1.8 1.4 3.6 2.8 5.5 4.1 1.8 1.2 3.6 2.4 5.5 3.5 3.5 2.1 7.2 4 11.1 5.7 16.2 7.2 35.4 10.8 57.1 10.8 31.9 0 57.7-7.9 76.8-23.4 4.1-3.3 7.7-6.8 10.8-10.6v-99.6c-5.2-6.1-11.2-11.4-17.8-15.9-10.4-7.1-25.2-15.6-43.9-25.3h-.1l-10.2-5.5c-16.7-7.7-29.4-14-37.7-18.9-8.8-5.1-15.4-10.6-19.8-16.4-4.6-6.1-6.9-13.3-6.9-21.4 0-11.6 4-20.9 11.9-27.6 7.7-6.5 18.3-9.9 31.4-9.9 15.5 0 28 4.2 37.2 12.5 9.3 8.4 14 18.9 14 31.4v8.5l.1.1.1.1H388V51.3c-8.8-11.9-20.7-21.3-35.5-28.1zM578.4 182.7l29.9-105.6c-1.9-6-4.3-11.8-7.3-17.2-7.8-14.1-19-25.3-33.3-33-14.3-7.8-31-11.8-49.6-11.8h-119l-.1.1-.1.1v313.3l.1.1.1.1H457.1l.1-.1.1-.1V208.1c0-3.3 2.1-5.8 5.7-6.7 2.1-.5 5.2-.8 10.9-.8h52.9c9.7 0 26.1-3.5 41-11.4 3.8-1.9 7.3-4.1 10.6-6.5zm-36.8-36.8c-8.7 8.9-20.4 13.4-34.7 13.4h-41.6c-4.4 0-7.9-3.3-7.9-7.5v-83c0-4.4 3.3-7.5 7.9-7.5h41.6c14.3 0 26 4.6 34.7 13.7 8.6 8.9 12.9 21 12.9 35.7.1 14.6-4.3 26.4-12.9 35.2zM776.7 291.8c-9.8-16.1-14.7-35-14.7-56.1v-39.1L711.1 16.4c-.2-.7-.3-.9-1.6-.9h-71.1c-1.3 0-1.4.2-1.6.9L619.6 77l-3.1 11-3.9 13.7-18.6 66.1-3.3 11.5-2.6 9.3-39.5 139.6h58.9c.5 0 .7-.1.7-.1s.2-.2.4-.7l11.2-45.1c.9-3.5 4-5.8 7.8-5.8h91.6c3.8 0 6.8 2.2 7.8 5.7v.1l11.2 45c.2.6.3.8 1.6.8h59.4l-4-14.3c-7.3-6.3-13.5-13.7-18.5-22zM710.8 235c-1.6 1.1-3.4 1.7-5.3 1.7h-64.8c-1.8 0-3.7-.6-5.3-1.7-2.5-1.7-3.4-4.6-2.5-7.5l32.8-133.7c1.4-5.3 5.6-5.8 6.8-5.8 1.2 0 5.3.4 6.8 5.7v.1l33.8 133.7c1.1 2.9.2 5.8-2.3 7.5z"/>
  <path class="st1" d="M936.3 23.3c-16.2-7.7-35.2-11.7-56.4-11.7-21.3 0-40.3 4-56.4 11.9-16 7.8-28.6 19-37.3 33.3-8.8 14.4-13.3 31.3-13.3 50.3v128.5c0 19.3 4.5 36.5 13.3 51 .7 1.2 1.5 2.3 2.2 3.5 2.6 3.9 5.6 7.6 8.8 11 2.4 2.5 5 4.9 7.7 7.2 5.6 4.6 11.8 8.6 18.6 11.9 16.2 7.9 35.1 11.9 56.4 11.9 21.3 0 40.3-3.9 56.4-11.7 12.6-6 23-14.2 31.2-24.3v-60.8l-38.8-1.6h-.3v5.7c0 13.9-4.5 25.3-13.3 33.7-8.9 8.5-20.7 12.8-35.2 12.8-14.5 0-26.4-4.3-35.2-12.8-8.8-8.5-13.3-19.8-13.3-33.7V104.7c0-13.9 4.5-25.3 13.3-33.9 8.9-8.7 20.7-13.1 35.3-13.1 14.5 0 26.4 4.4 35.3 13.1 8.8 8.6 13.3 20 13.3 33.9v5.7h.3l38.8-1.6V47.3c-8.3-9.9-18.8-17.9-31.4-24zM1044.9 61h131.2l.1-.1.1-.1V16v-.2l-.1-.1-.1-.1H978.7l-.1.1-.1.1v312.3l.1.1.1.1H1176.1l.1-.1.1-.1V283.3v-.2l-.1-.1-.1-.1h-131.2c-4.4 0-7.9-3.3-7.9-7.5V201c0-4.4 3.3-7.5 7.9-7.5h82.2l.1-.1.1-.1V148v-.2l-.1-.1c-.1-.1-.1-.1-.3-.1h-82.1c-4.4 0-7.9-3.3-7.9-7.5V68.4c0-4.4 3.3-7.4 8-7.4z"/>
  <path class="st2" d="M97.4 351.2c-7.3-3.6-15.7-5.3-25.3-5.3H26.3c-.7 0-1.3.2-1.8.7-.5.5-.7 1.1-.7 1.8v144.1c0 .7.2 1.3.7 1.8.5.5 1.1.7 1.8.7h45.8c9.5 0 17.9-1.8 25.3-5.3 7.3-3.6 13-8.6 17-15.1s6-14.1 6-22.8v-62.7c0-8.7-2-16.3-6-22.8-4.1-6.5-9.7-11.6-17-15.1zm-7.2 97.2c-.1 6.3-1.8 11.3-5.1 15-3.3 3.8-7.5 5.7-12.8 5.7l-17.5.2c-.7 0-1.1-.4-1.1-1.1v-95.5c0-.7.4-1.1 1.1-1.1h17.5c5.4 0 9.7 1.9 13 5.7 3.3 3.8 4.9 8.8 4.9 15.2v55.9zM218.4 345.9h-85.7c-.7 0-1.3.2-1.8.7-.5.5-.7 1.1-.7 1.8v144.1c0 .7.2 1.3.7 1.8.5.5 1.1.7 1.8.7h85.7c.7 0 1.3-.2 1.8-.7.5-.5.7-1.1.7-1.8v-20.7c0-.7-.2-1.3-.7-1.8-.5-.5-1.1-.7-1.8-.7h-57.1c-.7 0-1.1-.4-1.1-1.1v-34.3c0-.7.4-1.1 1.1-1.1h35.6c.7 0 1.3-.2 1.8-.7.5-.5.7-1.1.7-1.8v-20.7c0-.7-.2-1.3-.7-1.8-.5-.5-1.1-.7-1.8-.7h-35.6c-.7 0-1.1-.4-1.1-1.1v-33.3c0-.7.4-1.1 1.1-1.1h57.1c.7 0 1.3-.2 1.8-.7.5-.5.7-1.1.7-1.8v-20.7c0-.7-.2-1.3-.7-1.8-.5-.5-1.1-.7-1.8-.7zM251.8 349.2c-7.1 3.3-12.6 8.1-16.5 14.3-3.9 6.2-5.9 13.4-5.9 21.6 0 8.2 1.9 15.3 5.8 21.1 3.8 5.8 8.5 10.6 13.9 14.3 5.4 3.7 12.4 7.7 20.9 11.9 7 3.6 12.1 6.4 15.5 8.4 3.3 2.1 5.9 4.3 7.8 6.6 1.8 2.3 2.8 5.2 2.8 8.4 0 4.4-1.5 8-4.4 10.9-2.9 2.8-7.1 4.3-12.7 4.3-6.3 0-11.2-1.7-14.9-5-3.7-3.3-5.5-7.5-5.5-12.5v-4.1c0-.7-.2-1.3-.7-1.8-.5-.5-1.1-.7-1.8-.7h-24.5c-.7 0-1.3.2-1.8.7-.5.5-.7 1.1-.7 1.8v5.5c0 8.2 2 15.5 6.1 21.9 4.1 6.3 9.8 11.2 17.2 14.7 7.4 3.5 16 5.2 25.8 5.2 14.5 0 26.1-3.8 34.9-11.4 8.7-7.6 13.1-17.9 13.1-30.8 0-7.2-1.6-13.4-4.7-18.6-3.1-5.1-7-9.3-11.6-12.7-4.6-3.3-11.1-7.3-19.3-11.8l-4.5-2.6c-7.2-3.6-12.7-6.4-16.2-8.6-3.6-2.2-6.2-4.5-7.9-6.9-1.7-2.4-2.6-5.3-2.6-8.5 0-4.7 1.5-8.3 4.4-11 2.9-2.6 6.9-3.9 12-3.9 6.1 0 10.9 1.7 14.5 5.1 3.6 3.4 5.3 7.7 5.3 12.8v3.8c0 .7.2 1.3.7 1.8.5.5 1.1.7 1.8.7h24.5c.7 0 1.3-.2 1.8-.7.5-.5.7-1.1.7-1.8v-4.3c0-8.5-2.1-16.1-6.2-22.6s-9.9-11.6-17.3-15.2c-4.2-2.1-8.8-3.5-13.7-4.4-5.6 0-11.1-.3-16.4-.8-7.3.5-13.8 2.1-19.7 4.9zM509.2 345.9h-24.7c-1.4 0-2.4.6-3 1.7l-25.4 42c-.4.9-.9.9-1.3 0l-25.6-42c-.6-1.1-1.6-1.7-3-1.7h-24.7c-.7 0-1.3.2-1.8.7-.5.5-.7 1.1-.7 1.8v144.1c0 .7.2 1.3.7 1.8.5.5 1.1.7 1.8.7h24.9c.7 0 1.3-.2 1.8-.7.5-.5.7-1.1.7-1.8v-94.7c0-.6.1-.9.4-1 .3-.1.6.1.9.5l19.6 32.4c.6 1.1 1.6 1.7 3 1.7h4.9c1.4 0 2.4-.6 3-1.7l19.6-32.4c.3-.4.6-.6.9-.5.3.1.4.4.4 1v94.7c0 .7.2 1.3.7 1.8.5.5 1.1.7 1.8.7H509c.7 0 1.3-.2 1.8-.7.5-.5.7-1.1.7-1.8V348.4c0-.7-.3-1.3-.7-1.8-.3-.5-.9-.7-1.6-.7zM599.4 348c-.4-1.4-1.4-2.1-3-2.1h-30.9c-1.6 0-2.6.7-3 2.1l-38.4 144.4c-.4 1.8.3 2.8 2.1 2.8H552c1.4 0 2.3-.7 2.8-2.1l4.9-20.9c.1-.6.5-.9 1.1-.9h39.9c.6 0 .9.3 1.1.9l4.9 20.9c.4 1.4 1.4 2.1 3 2.1h26c1.6 0 2.3-.6 2.3-1.9l-.2-.9L599.4 348zm-3.9 99.7c-.3.2-.6.3-.9.3h-28.1c-.3 0-.6-.1-.9-.3-.3-.2-.4-.5-.2-1l14.3-61.8c.1-.6.4-.9.6-.9.3 0 .5.3.6.9l14.7 61.8c.3.4.2.8-.1 1zM724.5 430.9c-.3-.7-.1-1.2.6-1.5 7.2-3.3 12.9-8.2 16.8-14.9 4-6.7 6-14.6 6-23.7 0-8.8-1.8-16.6-5.3-23.5-3.6-6.8-8.6-12.1-15.1-15.9-6.5-3.8-14-5.7-22.4-5.7h-52c-.7 0-1.3.2-1.8.7-.5.5-.7 1.1-.7 1.8v144.1c0 .7.2 1.3.7 1.8.5.5 1.1.7 1.8.7H678c.7 0 1.3-.2 1.8-.7.5-.5.7-1.1.7-1.8v-58.2c0-.7.4-1.1 1.1-1.1H695c.4 0 .8.3 1.1.9l21.5 58.8c.4 1.4 1.4 2.1 3 2.1h26c1.6 0 2.3-.6 2.3-1.9 0-.4-.1-.8-.2-1.1l-24.2-60.9zM713 405c-3.3 3.5-7.5 5.2-12.8 5.2h-18.6c-.7 0-1.1-.4-1.1-1.1v-36.5c0-.7.4-1.1 1.1-1.1h18.6c5.3 0 9.5 1.7 12.8 5.2 3.3 3.5 4.9 8.2 4.9 14.2s-1.6 10.7-4.9 14.1zM830.7 350.2c-7.3-4.1-15.7-6.1-25.3-6.1-9.5 0-17.9 2-25.2 6.1-7.2 4.1-12.9 9.7-16.8 17.1-4 7.3-6 15.8-6 25.5v56.5c0 11.4 2.9 21.1 8.6 29.1 5.8 8 13.6 13.5 23.6 16.3.6.1.9.5.9 1.1v17.7c0 .7.2 1.3.7 1.8.5.5 1.1.7 1.8.7h25c.7 0 1.3-.2 1.8-.7.5-.5.7-1.1.7-1.8v-17.7c0-.6.3-.9.9-1.1 10.1-2.8 18-8.3 23.8-16.3 5.8-8 8.6-17.7 8.6-29.1v-56.5c0-9.7-2-18.2-6.1-25.5-4-7.3-9.7-13-17-17.1zm-6.9 100.4c0 6.1-1.7 11.1-5 14.8-3.3 3.8-7.8 5.7-13.3 5.7-5.3 0-9.6-1.9-12.9-5.7-3.3-3.8-5-8.7-5-14.8v-60.1c0-6.1 1.7-11.1 5-14.8 3.3-3.8 7.6-5.7 12.9-5.7 5.5 0 10 1.9 13.3 5.7 3.3 3.8 5 8.7 5 14.8v60.1zM961.2 345.9h-24.9c-.7 0-1.3.2-1.8.7-.5.5-.7 1.1-.7 1.8v102.3c0 6.1-1.7 11-5.1 14.7-3.4 3.7-8 5.5-13.6 5.5-5.7 0-10.2-1.8-13.6-5.5-3.4-3.7-5.1-8.6-5.1-14.7V348.4c0-.7-.2-1.3-.7-1.8-.5-.5-1.1-.7-1.8-.7H869c-.7 0-1.3.2-1.8.7-.5.5-.7 1.1-.7 1.8v100.9c0 9.4 2 17.7 6.1 24.8 4.1 7.2 9.8 12.8 17.2 16.7 7.4 4 15.9 6 25.6 6 9.7 0 18.2-2 25.6-6 7.4-4 13.1-9.6 17.2-16.7 4.1-7.2 6.1-15.5 6.1-24.8V348.4c0-.7-.3-1.3-.7-1.8-1.1-.5-1.7-.7-2.4-.7zM1066.4 345.9h-85.7c-.7 0-1.3.2-1.8.7-.5.5-.7 1.1-.7 1.8v144.1c0 .7.2 1.3.7 1.8.5.5 1.1.7 1.8.7h85.7c.7 0 1.3-.2 1.8-.7.5-.5.7-1.1.7-1.8v-20.7c0-.7-.2-1.3-.7-1.8-.5-.5-1.1-.7-1.8-.7h-57.1c-.7 0-1.1-.4-1.1-1.1v-34.3c0-.7.4-1.1 1.1-1.1h35.6c.7 0 1.3-.2 1.8-.7.5-.5.7-1.1.7-1.8v-20.7c0-.7-.3-1.3-.7-1.8-.5-.5-1.1-.7-1.8-.7h-35.6c-.7 0-1.1-.4-1.1-1.1v-33.3c0-.7.4-1.1 1.1-1.1h57.1c.7 0 1.3-.2 1.8-.7.5-.5.7-1.1.7-1.8v-20.7c0-.7-.2-1.3-.7-1.8-.5-.5-1.1-.7-1.8-.7zM1160.3 423.4c-4.6-3.3-11.1-7.3-19.3-11.8l-4.5-2.6c-7.2-3.6-12.7-6.4-16.2-8.6-3.6-2.2-6.2-4.5-7.9-6.9-1.7-2.4-2.6-5.3-2.6-8.5 0-4.7 1.5-8.3 4.4-11 2.9-2.6 6.9-3.9 12-3.9 6.1 0 10.9 1.7 14.5 5.1 3.6 3.4 5.3 7.7 5.3 12.8v3.8c0 .7.2 1.3.7 1.8.5.5 1.1.7 1.8.7h24.5c.7 0 1.3-.2 1.8-.7.5-.5.7-1.1.7-1.8v-4.3c0-8.5-2.1-16.1-6.2-22.6s-9.9-11.6-17.3-15.2c-7.4-3.6-15.9-5.4-25.4-5.4-9.1 0-17.2 1.7-24.3 5-7.1 3.3-12.6 8.1-16.5 14.3-3.9 6.2-5.9 13.4-5.9 21.6 0 8.2 1.9 15.3 5.8 21.1 3.8 5.8 8.5 10.6 13.9 14.3 5.4 3.7 12.4 7.7 20.9 11.9 7 3.6 12.1 6.4 15.5 8.4 3.3 2.1 5.9 4.3 7.8 6.6 1.8 2.3 2.8 5.2 2.8 8.4 0 4.4-1.5 8-4.4 10.9-2.9 2.8-7.1 4.3-12.7 4.3-6.3 0-11.2-1.7-14.9-5-3.7-3.3-5.5-7.5-5.5-12.5v-4.1c0-.7-.3-1.3-.7-1.8-.5-.5-1.1-.7-1.8-.7h-24.5c-.7 0-1.3.2-1.8.7-.5.5-.7 1.1-.7 1.8v5.5c0 8.2 2 15.5 6.1 21.9 4.1 6.3 9.8 11.2 17.2 14.7 7.4 3.5 16 5.2 25.8 5.2 14.5 0 26.1-3.8 34.9-11.4 8.7-7.6 13.1-17.9 13.1-30.8 0-7.2-1.6-13.4-4.7-18.6-3.2-5.1-7-9.3-11.7-12.6z"/>
</svg>
